<svg xmlns="http://www.w3.org/2000/svg" viewBox="0 0 64 64" fill="none">
  <defs>
    <linearGradient id="rocketGrad" x1="10" y1="10" x2="54" y2="54" gradientUnits="userSpaceOnUse">
      <stop stop-color="#7DD3FC"/>
      <stop offset="1" stop-color="#2563EB"/>
    </linearGradient>
  </defs>
  <rect width="64" height="64" rx="14" fill="#03050A"/>
  <path d="M37.7 9.5c7.6 1.9 13.4 7.7 15.3 15.3l-12 12-7.2-7.2 3.9-3.9-4.2-4.2-3.9 3.9-7.2-7.2 12-12Z" fill="url(#rocketGrad)"/>
  <path d="M29.6 25.6l8.8 8.8-7.3 7.3-9.2 2.2 2.2-9.2 5.5-9.1Z" fill="#60A5FA"/>
  <circle cx="39.6" cy="24.4" r="3.1" fill="#E0F2FE"/>
  <path d="M18.2 45.8c3.4-.9 6.5 2.2 5.6 5.6-.9 3.3-5.3 4.7-8.8 5 0-3.5 1.5-7.9 3.2-10.6Z" fill="#38BDF8"/>
</svg>
