<svg xmlns="http://www.w3.org/2000/svg" width="256" height="256" viewBox="0 0 24 24" fill="none" stroke="#60a5fa" stroke-width="2" stroke-linecap="round" stroke-linejoin="round" role="img" aria-label="Rocket icon">
  <path d="M4.5 16.5c-1.5 1.26-2 5.5-2 5.5s4.24-.47 5.5-2c.7-.84.7-2.13 0-2.97a2.18 2.18 0 0 0-3-.03Z"/>
  <path d="m12 15-3-3a22 22 0 0 1 3-8 12 12 0 0 1 8 8 22 22 0 0 1-8 3"/>
  <path d="M9 12H4a22 22 0 0 1 3-8 12 12 0 0 1 5 5"/>
  <path d="M12 15v5a22 22 0 0 0 8-3 12 12 0 0 0-5-5"/>
</svg>
